<mxfile host="65bd71144e">
    <diagram id="wS5lbhsW0VNBM1o351Oy" name="Page-1">
        <mxGraphModel dx="2883" dy="984" grid="1" gridSize="10" guides="1" tooltips="1" connect="1" arrows="1" fold="1" page="1" pageScale="1" pageWidth="850" pageHeight="1100" math="0" shadow="0">
            <root>
                <mxCell id="0"/>
                <mxCell id="1" parent="0"/>
                <mxCell id="48" value="Classname: Authority" style="swimlane;fontStyle=1;align=center;verticalAlign=top;childLayout=stackLayout;horizontal=1;startSize=26;horizontalStack=0;resizeParent=1;resizeParentMax=0;resizeLast=0;collapsible=1;marginBottom=0;labelBackgroundColor=none;strokeColor=#4D4D4D;fontColor=#F0F0F0;fillColor=#006666;" vertex="1" parent="1">
                    <mxGeometry x="330" y="467" width="200" height="452" as="geometry">
                        <mxRectangle x="300" y="260" width="100" height="40" as="alternateBounds"/>
                    </mxGeometry>
                </mxCell>
                <mxCell id="57" value="+ PK: PK , AI, UN" style="text;strokeColor=none;fillColor=none;align=left;verticalAlign=top;spacingLeft=4;spacingRight=4;overflow=hidden;rotatable=0;points=[[0,0.5],[1,0.5]];portConstraint=eastwest;labelBackgroundColor=none;fontColor=#F0F0F0;" vertex="1" parent="48">
                    <mxGeometry y="26" width="200" height="26" as="geometry"/>
                </mxCell>
                <mxCell id="58" value="+ name: str" style="text;strokeColor=none;fillColor=none;align=left;verticalAlign=top;spacingLeft=4;spacingRight=4;overflow=hidden;rotatable=0;points=[[0,0.5],[1,0.5]];portConstraint=eastwest;labelBackgroundColor=none;fontColor=#F0F0F0;" vertex="1" parent="48">
                    <mxGeometry y="52" width="200" height="26" as="geometry"/>
                </mxCell>
                <mxCell id="211" value="+ password: pass" style="text;strokeColor=none;fillColor=none;align=left;verticalAlign=top;spacingLeft=4;spacingRight=4;overflow=hidden;rotatable=0;points=[[0,0.5],[1,0.5]];portConstraint=eastwest;labelBackgroundColor=none;fontColor=#F0F0F0;" vertex="1" parent="48">
                    <mxGeometry y="78" width="200" height="26" as="geometry"/>
                </mxCell>
                <mxCell id="71" value="+ slug: str" style="text;strokeColor=none;fillColor=none;align=left;verticalAlign=top;spacingLeft=4;spacingRight=4;overflow=hidden;rotatable=0;points=[[0,0.5],[1,0.5]];portConstraint=eastwest;labelBackgroundColor=none;fontColor=#F0F0F0;" vertex="1" parent="48">
                    <mxGeometry y="104" width="200" height="26" as="geometry"/>
                </mxCell>
                <mxCell id="49" value="+ ID: UN, int" style="text;strokeColor=none;fillColor=none;align=left;verticalAlign=top;spacingLeft=4;spacingRight=4;overflow=hidden;rotatable=0;points=[[0,0.5],[1,0.5]];portConstraint=eastwest;labelBackgroundColor=none;fontColor=#F0F0F0;" vertex="1" parent="48">
                    <mxGeometry y="130" width="200" height="26" as="geometry"/>
                </mxCell>
                <mxCell id="60" value="+ date: date" style="text;strokeColor=none;fillColor=none;align=left;verticalAlign=top;spacingLeft=4;spacingRight=4;overflow=hidden;rotatable=0;points=[[0,0.5],[1,0.5]];portConstraint=eastwest;labelBackgroundColor=none;fontColor=#F0F0F0;" vertex="1" parent="48">
                    <mxGeometry y="156" width="200" height="26" as="geometry"/>
                </mxCell>
                <mxCell id="61" value="+ category: FK" style="text;strokeColor=none;fillColor=#006633;align=left;verticalAlign=top;spacingLeft=4;spacingRight=4;overflow=hidden;rotatable=0;points=[[0,0.5],[1,0.5]];portConstraint=eastwest;labelBackgroundColor=none;fontColor=#F0F0F0;" vertex="1" parent="48">
                    <mxGeometry y="182" width="200" height="26" as="geometry"/>
                </mxCell>
                <mxCell id="86" value="+ domain: list" style="text;strokeColor=none;fillColor=none;align=left;verticalAlign=top;spacingLeft=4;spacingRight=4;overflow=hidden;rotatable=0;points=[[0,0.5],[1,0.5]];portConstraint=eastwest;labelBackgroundColor=none;fontColor=#F0F0F0;" vertex="1" parent="48">
                    <mxGeometry y="208" width="200" height="26" as="geometry"/>
                </mxCell>
                <mxCell id="62" value="+ address: UN, str" style="text;strokeColor=none;fillColor=none;align=left;verticalAlign=top;spacingLeft=4;spacingRight=4;overflow=hidden;rotatable=0;points=[[0,0.5],[1,0.5]];portConstraint=eastwest;labelBackgroundColor=none;fontColor=#F0F0F0;" vertex="1" parent="48">
                    <mxGeometry y="234" width="200" height="26" as="geometry"/>
                </mxCell>
                <mxCell id="63" value="+ status: Bool" style="text;strokeColor=none;fillColor=none;align=left;verticalAlign=top;spacingLeft=4;spacingRight=4;overflow=hidden;rotatable=0;points=[[0,0.5],[1,0.5]];portConstraint=eastwest;labelBackgroundColor=none;fontColor=#F0F0F0;" vertex="1" parent="48">
                    <mxGeometry y="260" width="200" height="26" as="geometry"/>
                </mxCell>
                <mxCell id="50" value="" style="line;strokeWidth=1;fillColor=none;align=left;verticalAlign=middle;spacingTop=-1;spacingLeft=3;spacingRight=3;rotatable=0;labelPosition=right;points=[];portConstraint=eastwest;strokeColor=inherit;labelBackgroundColor=none;fontColor=#F0F0F0;" vertex="1" parent="48">
                    <mxGeometry y="286" width="200" height="8" as="geometry"/>
                </mxCell>
                <mxCell id="51" value="+ create_certificat(): Type" style="text;strokeColor=none;fillColor=#003366;align=left;verticalAlign=top;spacingLeft=4;spacingRight=4;overflow=hidden;rotatable=0;points=[[0,0.5],[1,0.5]];portConstraint=eastwest;labelBackgroundColor=none;fontColor=#F0F0F0;" vertex="1" parent="48">
                    <mxGeometry y="294" width="200" height="26" as="geometry"/>
                </mxCell>
                <mxCell id="70" value="+ view_certificats(): Type" style="text;strokeColor=none;fillColor=none;align=left;verticalAlign=top;spacingLeft=4;spacingRight=4;overflow=hidden;rotatable=0;points=[[0,0.5],[1,0.5]];portConstraint=eastwest;labelBackgroundColor=none;fontColor=#F0F0F0;" vertex="1" parent="48">
                    <mxGeometry y="320" width="200" height="26" as="geometry"/>
                </mxCell>
                <mxCell id="87" value="+ add_domain(): Type" style="text;strokeColor=none;fillColor=none;align=left;verticalAlign=top;spacingLeft=4;spacingRight=4;overflow=hidden;rotatable=0;points=[[0,0.5],[1,0.5]];portConstraint=eastwest;labelBackgroundColor=none;fontColor=#F0F0F0;" vertex="1" parent="48">
                    <mxGeometry y="346" width="200" height="26" as="geometry"/>
                </mxCell>
                <mxCell id="67" value="+ change_status(): bool" style="text;strokeColor=none;fillColor=none;align=left;verticalAlign=top;spacingLeft=4;spacingRight=4;overflow=hidden;rotatable=0;points=[[0,0.5],[1,0.5]];portConstraint=eastwest;labelBackgroundColor=none;fontColor=#F0F0F0;" vertex="1" parent="48">
                    <mxGeometry y="372" width="200" height="26" as="geometry"/>
                </mxCell>
                <mxCell id="223" value="+ create_address(): type" style="text;strokeColor=none;fillColor=#666600;align=left;verticalAlign=top;spacingLeft=4;spacingRight=4;overflow=hidden;rotatable=0;points=[[0,0.5],[1,0.5]];portConstraint=eastwest;labelBackgroundColor=none;fontColor=#F0F0F0;" vertex="1" parent="48">
                    <mxGeometry y="398" width="200" height="26" as="geometry"/>
                </mxCell>
                <mxCell id="59" value="+ __str__(): name, status , wallet" style="text;strokeColor=none;fillColor=none;align=left;verticalAlign=top;spacingLeft=4;spacingRight=4;overflow=hidden;rotatable=0;points=[[0,0.5],[1,0.5]];portConstraint=eastwest;labelBackgroundColor=none;fontColor=#F0F0F0;" vertex="1" parent="48">
                    <mxGeometry y="424" width="200" height="28" as="geometry"/>
                </mxCell>
                <mxCell id="52" value="Classname: Category" style="swimlane;fontStyle=1;align=center;verticalAlign=top;childLayout=stackLayout;horizontal=1;startSize=26;horizontalStack=0;resizeParent=1;resizeParentMax=0;resizeLast=0;collapsible=1;marginBottom=0;labelBackgroundColor=none;strokeColor=#4D4D4D;fontColor=#F0F0F0;fillColor=#006633;" vertex="1" parent="1">
                    <mxGeometry x="100" y="753" width="160" height="166" as="geometry"/>
                </mxCell>
                <mxCell id="68" value="+ PK: PK , AI, UN" style="text;strokeColor=none;fillColor=none;align=left;verticalAlign=top;spacingLeft=4;spacingRight=4;overflow=hidden;rotatable=0;points=[[0,0.5],[1,0.5]];portConstraint=eastwest;labelBackgroundColor=none;fontColor=#F0F0F0;" vertex="1" parent="52">
                    <mxGeometry y="26" width="160" height="26" as="geometry"/>
                </mxCell>
                <mxCell id="69" value="+ name: str" style="text;strokeColor=none;fillColor=none;align=left;verticalAlign=top;spacingLeft=4;spacingRight=4;overflow=hidden;rotatable=0;points=[[0,0.5],[1,0.5]];portConstraint=eastwest;labelBackgroundColor=none;fontColor=#F0F0F0;" vertex="1" parent="52">
                    <mxGeometry y="52" width="160" height="26" as="geometry"/>
                </mxCell>
                <mxCell id="72" value="+ slug: str" style="text;strokeColor=none;fillColor=none;align=left;verticalAlign=top;spacingLeft=4;spacingRight=4;overflow=hidden;rotatable=0;points=[[0,0.5],[1,0.5]];portConstraint=eastwest;labelBackgroundColor=none;fontColor=#F0F0F0;" vertex="1" parent="52">
                    <mxGeometry y="78" width="160" height="26" as="geometry"/>
                </mxCell>
                <mxCell id="54" value="" style="line;strokeWidth=1;fillColor=none;align=left;verticalAlign=middle;spacingTop=-1;spacingLeft=3;spacingRight=3;rotatable=0;labelPosition=right;points=[];portConstraint=eastwest;strokeColor=inherit;labelBackgroundColor=none;fontColor=#F0F0F0;" vertex="1" parent="52">
                    <mxGeometry y="104" width="160" height="8" as="geometry"/>
                </mxCell>
                <mxCell id="55" value="+ add_category(): type" style="text;strokeColor=none;fillColor=none;align=left;verticalAlign=top;spacingLeft=4;spacingRight=4;overflow=hidden;rotatable=0;points=[[0,0.5],[1,0.5]];portConstraint=eastwest;labelBackgroundColor=none;fontColor=#F0F0F0;" vertex="1" parent="52">
                    <mxGeometry y="112" width="160" height="26" as="geometry"/>
                </mxCell>
                <mxCell id="65" value="+ __str__(): name" style="text;strokeColor=none;fillColor=none;align=left;verticalAlign=top;spacingLeft=4;spacingRight=4;overflow=hidden;rotatable=0;points=[[0,0.5],[1,0.5]];portConstraint=eastwest;labelBackgroundColor=none;fontColor=#F0F0F0;" vertex="1" parent="52">
                    <mxGeometry y="138" width="160" height="28" as="geometry"/>
                </mxCell>
                <mxCell id="73" value="Classname: Certificate" style="swimlane;fontStyle=1;align=center;verticalAlign=top;childLayout=stackLayout;horizontal=1;startSize=26;horizontalStack=0;resizeParent=1;resizeParentMax=0;resizeLast=0;collapsible=1;marginBottom=0;labelBackgroundColor=none;strokeColor=#4D4D4D;fontColor=#F0F0F0;fillColor=#003366;" vertex="1" parent="1">
                    <mxGeometry x="600" y="623" width="160" height="272" as="geometry"/>
                </mxCell>
                <mxCell id="74" value="+ PK: PK , AI, UN" style="text;strokeColor=none;fillColor=none;align=left;verticalAlign=top;spacingLeft=4;spacingRight=4;overflow=hidden;rotatable=0;points=[[0,0.5],[1,0.5]];portConstraint=eastwest;labelBackgroundColor=none;fontColor=#F0F0F0;" vertex="1" parent="73">
                    <mxGeometry y="26" width="160" height="26" as="geometry"/>
                </mxCell>
                <mxCell id="75" value="+ authority: FK" style="text;strokeColor=none;fillColor=#006666;align=left;verticalAlign=top;spacingLeft=4;spacingRight=4;overflow=hidden;rotatable=0;points=[[0,0.5],[1,0.5]];portConstraint=eastwest;labelBackgroundColor=none;fontColor=#F0F0F0;" vertex="1" parent="73">
                    <mxGeometry y="52" width="160" height="26" as="geometry"/>
                </mxCell>
                <mxCell id="76" value="+ domain: str" style="text;strokeColor=none;fillColor=none;align=left;verticalAlign=top;spacingLeft=4;spacingRight=4;overflow=hidden;rotatable=0;points=[[0,0.5],[1,0.5]];portConstraint=eastwest;labelBackgroundColor=none;fontColor=#F0F0F0;" vertex="1" parent="73">
                    <mxGeometry y="78" width="160" height="26" as="geometry"/>
                </mxCell>
                <mxCell id="85" value="+ name: str" style="text;strokeColor=none;fillColor=none;align=left;verticalAlign=top;spacingLeft=4;spacingRight=4;overflow=hidden;rotatable=0;points=[[0,0.5],[1,0.5]];portConstraint=eastwest;labelBackgroundColor=none;fontColor=#F0F0F0;" vertex="1" parent="73">
                    <mxGeometry y="104" width="160" height="26" as="geometry"/>
                </mxCell>
                <mxCell id="82" value="+ address owner: UN, str" style="text;strokeColor=none;fillColor=none;align=left;verticalAlign=top;spacingLeft=4;spacingRight=4;overflow=hidden;rotatable=0;points=[[0,0.5],[1,0.5]];portConstraint=eastwest;labelBackgroundColor=none;fontColor=#F0F0F0;" vertex="1" parent="73">
                    <mxGeometry y="130" width="160" height="26" as="geometry"/>
                </mxCell>
                <mxCell id="83" value="+ date: date" style="text;strokeColor=none;fillColor=none;align=left;verticalAlign=top;spacingLeft=4;spacingRight=4;overflow=hidden;rotatable=0;points=[[0,0.5],[1,0.5]];portConstraint=eastwest;labelBackgroundColor=none;fontColor=#F0F0F0;" vertex="1" parent="73">
                    <mxGeometry y="156" width="160" height="26" as="geometry"/>
                </mxCell>
                <mxCell id="77" value="+ email: mail" style="text;strokeColor=none;fillColor=none;align=left;verticalAlign=top;spacingLeft=4;spacingRight=4;overflow=hidden;rotatable=0;points=[[0,0.5],[1,0.5]];portConstraint=eastwest;labelBackgroundColor=none;fontColor=#F0F0F0;" vertex="1" parent="73">
                    <mxGeometry y="182" width="160" height="26" as="geometry"/>
                </mxCell>
                <mxCell id="79" value="" style="line;strokeWidth=1;fillColor=none;align=left;verticalAlign=middle;spacingTop=-1;spacingLeft=3;spacingRight=3;rotatable=0;labelPosition=right;points=[];portConstraint=eastwest;strokeColor=inherit;labelBackgroundColor=none;fontColor=#F0F0F0;" vertex="1" parent="73">
                    <mxGeometry y="208" width="160" height="8" as="geometry"/>
                </mxCell>
                <mxCell id="127" value="+ add_certificate(): Type" style="text;strokeColor=none;fillColor=none;align=left;verticalAlign=top;spacingLeft=4;spacingRight=4;overflow=hidden;rotatable=0;points=[[0,0.5],[1,0.5]];portConstraint=eastwest;labelBackgroundColor=none;fontColor=#F0F0F0;" vertex="1" parent="73">
                    <mxGeometry y="216" width="160" height="28" as="geometry"/>
                </mxCell>
                <mxCell id="81" value="+ __str__(): name, domain" style="text;strokeColor=none;fillColor=none;align=left;verticalAlign=top;spacingLeft=4;spacingRight=4;overflow=hidden;rotatable=0;points=[[0,0.5],[1,0.5]];portConstraint=eastwest;labelBackgroundColor=none;fontColor=#F0F0F0;" vertex="1" parent="73">
                    <mxGeometry y="244" width="160" height="28" as="geometry"/>
                </mxCell>
                <mxCell id="88" value="Classname: address" style="swimlane;fontStyle=1;align=center;verticalAlign=top;childLayout=stackLayout;horizontal=1;startSize=26;horizontalStack=0;resizeParent=1;resizeParentMax=0;resizeLast=0;collapsible=1;marginBottom=0;labelBackgroundColor=none;strokeColor=#4D4D4D;fontColor=#F0F0F0;fillColor=#666600;" vertex="1" parent="1">
                    <mxGeometry x="100" y="467" width="160" height="218" as="geometry"/>
                </mxCell>
                <mxCell id="89" value="+ PK: PK , AI, UN" style="text;strokeColor=none;fillColor=none;align=left;verticalAlign=top;spacingLeft=4;spacingRight=4;overflow=hidden;rotatable=0;points=[[0,0.5],[1,0.5]];portConstraint=eastwest;labelBackgroundColor=none;fontColor=#F0F0F0;" vertex="1" parent="88">
                    <mxGeometry y="26" width="160" height="26" as="geometry"/>
                </mxCell>
                <mxCell id="122" value="+ statut: list( user, authority )" style="text;strokeColor=none;fillColor=none;align=left;verticalAlign=top;spacingLeft=4;spacingRight=4;overflow=hidden;rotatable=0;points=[[0,0.5],[1,0.5]];portConstraint=eastwest;labelBackgroundColor=none;fontColor=#F0F0F0;" vertex="1" parent="88">
                    <mxGeometry y="52" width="160" height="26" as="geometry"/>
                </mxCell>
                <mxCell id="90" value="+ address: str, UN" style="text;strokeColor=none;fillColor=none;align=left;verticalAlign=top;spacingLeft=4;spacingRight=4;overflow=hidden;rotatable=0;points=[[0,0.5],[1,0.5]];portConstraint=eastwest;labelBackgroundColor=none;fontColor=#F0F0F0;" vertex="1" parent="88">
                    <mxGeometry y="78" width="160" height="26" as="geometry"/>
                </mxCell>
                <mxCell id="95" value="+ date: date" style="text;strokeColor=none;fillColor=none;align=left;verticalAlign=top;spacingLeft=4;spacingRight=4;overflow=hidden;rotatable=0;points=[[0,0.5],[1,0.5]];portConstraint=eastwest;labelBackgroundColor=none;fontColor=#F0F0F0;" vertex="1" parent="88">
                    <mxGeometry y="104" width="160" height="26" as="geometry"/>
                </mxCell>
                <mxCell id="92" value="" style="line;strokeWidth=1;fillColor=none;align=left;verticalAlign=middle;spacingTop=-1;spacingLeft=3;spacingRight=3;rotatable=0;labelPosition=right;points=[];portConstraint=eastwest;strokeColor=inherit;labelBackgroundColor=none;fontColor=#F0F0F0;" vertex="1" parent="88">
                    <mxGeometry y="130" width="160" height="8" as="geometry"/>
                </mxCell>
                <mxCell id="93" value="+ create_certificate(): type" style="text;strokeColor=none;fillColor=none;align=left;verticalAlign=top;spacingLeft=4;spacingRight=4;overflow=hidden;rotatable=0;points=[[0,0.5],[1,0.5]];portConstraint=eastwest;labelBackgroundColor=none;fontColor=#F0F0F0;" vertex="1" parent="88">
                    <mxGeometry y="138" width="160" height="26" as="geometry"/>
                </mxCell>
                <mxCell id="217" value="+ recovery_adress(): type" style="text;strokeColor=none;fillColor=none;align=left;verticalAlign=top;spacingLeft=4;spacingRight=4;overflow=hidden;rotatable=0;points=[[0,0.5],[1,0.5]];portConstraint=eastwest;labelBackgroundColor=none;fontColor=#F0F0F0;" vertex="1" parent="88">
                    <mxGeometry y="164" width="160" height="26" as="geometry"/>
                </mxCell>
                <mxCell id="94" value="+ __str__(): address" style="text;strokeColor=none;fillColor=none;align=left;verticalAlign=top;spacingLeft=4;spacingRight=4;overflow=hidden;rotatable=0;points=[[0,0.5],[1,0.5]];portConstraint=eastwest;labelBackgroundColor=none;fontColor=#F0F0F0;" vertex="1" parent="88">
                    <mxGeometry y="190" width="160" height="28" as="geometry"/>
                </mxCell>
                <mxCell id="96" value="ADMIN: CertiBlock" style="swimlane;fontStyle=1;align=center;verticalAlign=top;childLayout=stackLayout;horizontal=1;startSize=26;horizontalStack=0;resizeParent=1;resizeParentMax=0;resizeLast=0;collapsible=1;marginBottom=0;labelBackgroundColor=none;strokeColor=#4D4D4D;fontColor=#F0F0F0;fillColor=#660000;" vertex="1" parent="1">
                    <mxGeometry x="100" y="136" width="160" height="244" as="geometry"/>
                </mxCell>
                <mxCell id="98" value="+ address: str" style="text;strokeColor=none;fillColor=none;align=left;verticalAlign=top;spacingLeft=4;spacingRight=4;overflow=hidden;rotatable=0;points=[[0,0.5],[1,0.5]];portConstraint=eastwest;labelBackgroundColor=none;fontColor=#F0F0F0;" vertex="1" parent="96">
                    <mxGeometry y="26" width="160" height="26" as="geometry"/>
                </mxCell>
                <mxCell id="214" value="+ password: pass" style="text;strokeColor=none;fillColor=none;align=left;verticalAlign=top;spacingLeft=4;spacingRight=4;overflow=hidden;rotatable=0;points=[[0,0.5],[1,0.5]];portConstraint=eastwest;labelBackgroundColor=none;fontColor=#F0F0F0;" vertex="1" parent="96">
                    <mxGeometry y="52" width="160" height="26" as="geometry"/>
                </mxCell>
                <mxCell id="123" value="+ name: str" style="text;strokeColor=none;fillColor=none;align=left;verticalAlign=top;spacingLeft=4;spacingRight=4;overflow=hidden;rotatable=0;points=[[0,0.5],[1,0.5]];portConstraint=eastwest;labelBackgroundColor=none;fontColor=#F0F0F0;" vertex="1" parent="96">
                    <mxGeometry y="78" width="160" height="26" as="geometry"/>
                </mxCell>
                <mxCell id="100" value="" style="line;strokeWidth=1;fillColor=none;align=left;verticalAlign=middle;spacingTop=-1;spacingLeft=3;spacingRight=3;rotatable=0;labelPosition=right;points=[];portConstraint=eastwest;strokeColor=inherit;labelBackgroundColor=none;fontColor=#F0F0F0;" vertex="1" parent="96">
                    <mxGeometry y="104" width="160" height="8" as="geometry"/>
                </mxCell>
                <mxCell id="215" value="+ recovery_address(): type" style="text;strokeColor=none;fillColor=#FF0000;align=left;verticalAlign=top;spacingLeft=4;spacingRight=4;overflow=hidden;rotatable=0;points=[[0,0.5],[1,0.5]];portConstraint=eastwest;labelBackgroundColor=none;fontColor=#F0F0F0;" vertex="1" parent="96">
                    <mxGeometry y="112" width="160" height="26" as="geometry"/>
                </mxCell>
                <mxCell id="104" value="+ create_authority(): type" style="text;strokeColor=none;fillColor=#006666;align=left;verticalAlign=top;spacingLeft=4;spacingRight=4;overflow=hidden;rotatable=0;points=[[0,0.5],[1,0.5]];portConstraint=eastwest;labelBackgroundColor=none;fontColor=#F0F0F0;" vertex="1" parent="96">
                    <mxGeometry y="138" width="160" height="26" as="geometry"/>
                </mxCell>
                <mxCell id="103" value="+ create_category(): type" style="text;strokeColor=none;fillColor=#006633;align=left;verticalAlign=top;spacingLeft=4;spacingRight=4;overflow=hidden;rotatable=0;points=[[0,0.5],[1,0.5]];portConstraint=eastwest;labelBackgroundColor=none;fontColor=#F0F0F0;" vertex="1" parent="96">
                    <mxGeometry y="164" width="160" height="26" as="geometry"/>
                </mxCell>
                <mxCell id="101" value="+ create_address(): type" style="text;strokeColor=none;fillColor=#666600;align=left;verticalAlign=top;spacingLeft=4;spacingRight=4;overflow=hidden;rotatable=0;points=[[0,0.5],[1,0.5]];portConstraint=eastwest;labelBackgroundColor=none;fontColor=#F0F0F0;" vertex="1" parent="96">
                    <mxGeometry y="190" width="160" height="26" as="geometry"/>
                </mxCell>
                <mxCell id="102" value="+ __str__(): address" style="text;strokeColor=none;fillColor=none;align=left;verticalAlign=top;spacingLeft=4;spacingRight=4;overflow=hidden;rotatable=0;points=[[0,0.5],[1,0.5]];portConstraint=eastwest;labelBackgroundColor=none;fontColor=#F0F0F0;" vertex="1" parent="96">
                    <mxGeometry y="216" width="160" height="28" as="geometry"/>
                </mxCell>
                <mxCell id="107" style="edgeStyle=none;html=1;exitX=0;exitY=0.5;exitDx=0;exitDy=0;entryX=1;entryY=0.072;entryDx=0;entryDy=0;entryPerimeter=0;fontColor=#F0F0F0;strokeColor=#006633;" edge="1" parent="1" source="61" target="52">
                    <mxGeometry relative="1" as="geometry">
                        <Array as="points">
                            <mxPoint x="300" y="662"/>
                            <mxPoint x="300" y="765"/>
                        </Array>
                    </mxGeometry>
                </mxCell>
                <mxCell id="108" style="edgeStyle=none;html=1;exitX=0;exitY=0.5;exitDx=0;exitDy=0;strokeColor=#006666;fontColor=#F0F0F0;entryX=1.009;entryY=0.035;entryDx=0;entryDy=0;entryPerimeter=0;" edge="1" parent="1" source="75" target="48">
                    <mxGeometry relative="1" as="geometry">
                        <Array as="points">
                            <mxPoint x="560" y="688"/>
                            <mxPoint x="560" y="484"/>
                        </Array>
                    </mxGeometry>
                </mxCell>
                <mxCell id="109" style="edgeStyle=none;html=1;exitX=0;exitY=0.5;exitDx=0;exitDy=0;entryX=-0.012;entryY=0.08;entryDx=0;entryDy=0;entryPerimeter=0;strokeColor=#666600;fontColor=#F0F0F0;" edge="1" parent="1" source="101" target="88">
                    <mxGeometry relative="1" as="geometry">
                        <Array as="points">
                            <mxPoint x="60" y="338"/>
                            <mxPoint x="60" y="484"/>
                        </Array>
                    </mxGeometry>
                </mxCell>
                <mxCell id="110" style="edgeStyle=none;html=1;exitX=0;exitY=0.5;exitDx=0;exitDy=0;entryX=-0.006;entryY=0.09;entryDx=0;entryDy=0;entryPerimeter=0;strokeColor=#006600;fontColor=#F0F0F0;" edge="1" parent="1" source="103" target="52">
                    <mxGeometry relative="1" as="geometry">
                        <Array as="points">
                            <mxPoint x="40" y="312"/>
                            <mxPoint x="40" y="480"/>
                            <mxPoint x="40" y="768"/>
                        </Array>
                    </mxGeometry>
                </mxCell>
                <mxCell id="111" style="edgeStyle=none;html=1;exitX=1;exitY=0.5;exitDx=0;exitDy=0;entryX=0;entryY=0.035;entryDx=0;entryDy=0;entryPerimeter=0;strokeColor=#006666;fontColor=#F0F0F0;" edge="1" parent="1" source="104" target="48">
                    <mxGeometry relative="1" as="geometry">
                        <Array as="points">
                            <mxPoint x="290" y="286"/>
                            <mxPoint x="290" y="484"/>
                        </Array>
                    </mxGeometry>
                </mxCell>
                <mxCell id="112" style="edgeStyle=none;html=1;exitX=1;exitY=0.5;exitDx=0;exitDy=0;entryX=1;entryY=0.049;entryDx=0;entryDy=0;entryPerimeter=0;strokeColor=#003366;fontColor=#F0F0F0;fillColor=#003366;" edge="1" parent="1" source="51" target="73">
                    <mxGeometry relative="1" as="geometry">
                        <Array as="points">
                            <mxPoint x="570" y="774"/>
                            <mxPoint x="570" y="913"/>
                            <mxPoint x="800" y="913"/>
                            <mxPoint x="800" y="635"/>
                        </Array>
                    </mxGeometry>
                </mxCell>
                <mxCell id="113" value="Classname: User" style="swimlane;fontStyle=1;align=center;verticalAlign=top;childLayout=stackLayout;horizontal=1;startSize=26;horizontalStack=0;resizeParent=1;resizeParentMax=0;resizeLast=0;collapsible=1;marginBottom=0;labelBackgroundColor=none;strokeColor=#4D4D4D;fontColor=#F0F0F0;fillColor=#330066;" vertex="1" parent="1">
                    <mxGeometry x="320" y="109" width="160" height="244" as="geometry"/>
                </mxCell>
                <mxCell id="120" value="+ name: str" style="text;strokeColor=none;fillColor=none;align=left;verticalAlign=top;spacingLeft=4;spacingRight=4;overflow=hidden;rotatable=0;points=[[0,0.5],[1,0.5]];portConstraint=eastwest;labelBackgroundColor=none;fontColor=#F0F0F0;" vertex="1" parent="113">
                    <mxGeometry y="26" width="160" height="26" as="geometry"/>
                </mxCell>
                <mxCell id="202" value="+ password: pass" style="text;strokeColor=none;fillColor=none;align=left;verticalAlign=top;spacingLeft=4;spacingRight=4;overflow=hidden;rotatable=0;points=[[0,0.5],[1,0.5]];portConstraint=eastwest;labelBackgroundColor=none;fontColor=#F0F0F0;" vertex="1" parent="113">
                    <mxGeometry y="52" width="160" height="26" as="geometry"/>
                </mxCell>
                <mxCell id="121" value="+ slug: str" style="text;strokeColor=none;fillColor=none;align=left;verticalAlign=top;spacingLeft=4;spacingRight=4;overflow=hidden;rotatable=0;points=[[0,0.5],[1,0.5]];portConstraint=eastwest;labelBackgroundColor=none;fontColor=#F0F0F0;" vertex="1" parent="113">
                    <mxGeometry y="78" width="160" height="26" as="geometry"/>
                </mxCell>
                <mxCell id="114" value="+ address: str, UN" style="text;strokeColor=none;fillColor=none;align=left;verticalAlign=top;spacingLeft=4;spacingRight=4;overflow=hidden;rotatable=0;points=[[0,0.5],[1,0.5]];portConstraint=eastwest;labelBackgroundColor=none;fontColor=#F0F0F0;" vertex="1" parent="113">
                    <mxGeometry y="104" width="160" height="26" as="geometry"/>
                </mxCell>
                <mxCell id="206" value="+ email: mail" style="text;strokeColor=none;fillColor=none;align=left;verticalAlign=top;spacingLeft=4;spacingRight=4;overflow=hidden;rotatable=0;points=[[0,0.5],[1,0.5]];portConstraint=eastwest;labelBackgroundColor=none;fontColor=#F0F0F0;" vertex="1" parent="113">
                    <mxGeometry y="130" width="160" height="26" as="geometry"/>
                </mxCell>
                <mxCell id="125" value="+ certificates: list()" style="text;strokeColor=none;fillColor=none;align=left;verticalAlign=top;spacingLeft=4;spacingRight=4;overflow=hidden;rotatable=0;points=[[0,0.5],[1,0.5]];portConstraint=eastwest;labelBackgroundColor=none;fontColor=#F0F0F0;" vertex="1" parent="113">
                    <mxGeometry y="156" width="160" height="26" as="geometry"/>
                </mxCell>
                <mxCell id="115" value="" style="line;strokeWidth=1;fillColor=none;align=left;verticalAlign=middle;spacingTop=-1;spacingLeft=3;spacingRight=3;rotatable=0;labelPosition=right;points=[];portConstraint=eastwest;strokeColor=inherit;labelBackgroundColor=none;fontColor=#F0F0F0;" vertex="1" parent="113">
                    <mxGeometry y="182" width="160" height="8" as="geometry"/>
                </mxCell>
                <mxCell id="118" value="+ create_address(): type" style="text;strokeColor=none;fillColor=#666600;align=left;verticalAlign=top;spacingLeft=4;spacingRight=4;overflow=hidden;rotatable=0;points=[[0,0.5],[1,0.5]];portConstraint=eastwest;labelBackgroundColor=none;fontColor=#F0F0F0;" vertex="1" parent="113">
                    <mxGeometry y="190" width="160" height="26" as="geometry"/>
                </mxCell>
                <mxCell id="119" value="+ __str__(): name, address" style="text;strokeColor=none;fillColor=none;align=left;verticalAlign=top;spacingLeft=4;spacingRight=4;overflow=hidden;rotatable=0;points=[[0,0.5],[1,0.5]];portConstraint=eastwest;labelBackgroundColor=none;fontColor=#F0F0F0;" vertex="1" parent="113">
                    <mxGeometry y="216" width="160" height="28" as="geometry"/>
                </mxCell>
                <mxCell id="124" style="edgeStyle=none;html=1;exitX=0;exitY=0.5;exitDx=0;exitDy=0;entryX=0.996;entryY=0.036;entryDx=0;entryDy=0;entryPerimeter=0;strokeColor=#666600;fontColor=#F0F0F0;fillColor=#666600;" edge="1" parent="1" source="118" target="88">
                    <mxGeometry relative="1" as="geometry">
                        <Array as="points">
                            <mxPoint x="280" y="312"/>
                            <mxPoint x="280" y="475"/>
                        </Array>
                    </mxGeometry>
                </mxCell>
                <mxCell id="221" value="" style="edgeStyle=none;html=1;strokeColor=#004C99;fontSize=9;fontColor=#994C00;fillColor=#CC6600;" edge="1" parent="1" source="130" target="220">
                    <mxGeometry relative="1" as="geometry"/>
                </mxCell>
                <mxCell id="130" value="signup" style="html=1;align=center;verticalAlign=top;rounded=1;absoluteArcSize=1;arcSize=30;dashed=0;labelBackgroundColor=none;strokeColor=#4D4D4D;fontColor=#F0F0F0;fillColor=#003366;" vertex="1" parent="1">
                    <mxGeometry x="-670" y="512" width="60" height="28" as="geometry"/>
                </mxCell>
                <mxCell id="158" value="" style="edgeStyle=none;html=1;strokeColor=#3399FF;fontColor=#F0F0F0;fillColor=#003366;" edge="1" parent="1" source="155" target="157">
                    <mxGeometry relative="1" as="geometry"/>
                </mxCell>
                <mxCell id="160" value="" style="edgeStyle=none;html=1;strokeColor=#FFFF66;fontColor=#F0F0F0;fillColor=#003366;" edge="1" parent="1" source="155" target="159">
                    <mxGeometry relative="1" as="geometry"/>
                </mxCell>
                <mxCell id="219" value="" style="edgeStyle=none;html=1;strokeColor=#666666;fontSize=9;fontColor=#994C00;fillColor=#CC6600;" edge="1" parent="1" source="155" target="173">
                    <mxGeometry relative="1" as="geometry"/>
                </mxCell>
                <mxCell id="155" value="&lt;br&gt;&lt;br&gt;IF" style="rhombus;whiteSpace=wrap;html=1;verticalAlign=top;fillColor=#003366;strokeColor=#994C00;fontColor=#F0F0F0;rounded=1;arcSize=0;dashed=0;labelBackgroundColor=none;align=center;" vertex="1" parent="1">
                    <mxGeometry x="-440" y="486" width="80" height="80" as="geometry"/>
                </mxCell>
                <mxCell id="190" value="" style="edgeStyle=none;html=1;strokeColor=#FFFF99;fontSize=9;fontColor=#994C00;fillColor=#CC6600;" edge="1" parent="1" source="157" target="161">
                    <mxGeometry relative="1" as="geometry"/>
                </mxCell>
                <mxCell id="157" value="user" style="rounded=1;whiteSpace=wrap;html=1;verticalAlign=top;fillColor=#003366;strokeColor=#3399FF;fontColor=#F0F0F0;arcSize=41;dashed=0;labelBackgroundColor=none;align=center;" vertex="1" parent="1">
                    <mxGeometry x="-320" y="510" width="84" height="32" as="geometry"/>
                </mxCell>
                <mxCell id="191" value="" style="edgeStyle=none;html=1;strokeColor=#FFFF99;fontSize=9;fontColor=#994C00;fillColor=#CC6600;entryX=-0.014;entryY=0.439;entryDx=0;entryDy=0;entryPerimeter=0;" edge="1" parent="1" source="159" target="163">
                    <mxGeometry relative="1" as="geometry"/>
                </mxCell>
                <mxCell id="159" value="authority" style="rounded=1;whiteSpace=wrap;html=1;verticalAlign=top;fillColor=#003366;strokeColor=#FFFF66;fontColor=#F0F0F0;arcSize=38;dashed=0;labelBackgroundColor=none;" vertex="1" parent="1">
                    <mxGeometry x="-450" y="630" width="100" height="32" as="geometry"/>
                </mxCell>
                <mxCell id="161" value="&lt;div style=&quot;text-align: left;&quot;&gt;&lt;span style=&quot;background-color: initial;&quot;&gt;Acces to:&lt;/span&gt;&lt;br&gt;&lt;span style=&quot;background-color: initial;&quot;&gt;&lt;span style=&quot;white-space: pre;&quot;&gt;&#9;&lt;/span&gt;- name&lt;/span&gt;&lt;br&gt;&lt;span style=&quot;background-color: initial;&quot;&gt;&lt;span style=&quot;white-space: pre;&quot;&gt;&#9;&lt;/span&gt;- address&lt;/span&gt;&lt;br&gt;&lt;span style=&quot;background-color: initial;&quot;&gt;&lt;span style=&quot;white-space: pre;&quot;&gt;&#9;&lt;/span&gt;- certificates&lt;/span&gt;&lt;br&gt;&lt;/div&gt;" style="rounded=1;whiteSpace=wrap;html=1;verticalAlign=top;fillColor=#003366;strokeColor=#3399FF;fontColor=#F0F0F0;arcSize=10;dashed=0;labelBackgroundColor=none;" vertex="1" parent="1">
                    <mxGeometry x="-188" y="492" width="108" height="68" as="geometry"/>
                </mxCell>
                <mxCell id="163" value="&lt;span style=&quot;white-space: pre;&quot;&gt;&#9;&lt;/span&gt;Acces to:&lt;br&gt;&lt;span style=&quot;white-space: pre;&quot;&gt;&#9;&lt;span style=&quot;white-space: pre;&quot;&gt;&#9;&lt;/span&gt;&lt;/span&gt;- names&lt;br&gt;&lt;span style=&quot;white-space: pre;&quot;&gt;&#9;&lt;span style=&quot;white-space: pre;&quot;&gt;&#9;&lt;/span&gt;&lt;/span&gt;- addresses&lt;br&gt;&lt;span style=&quot;white-space: pre;&quot;&gt;&#9;&lt;span style=&quot;white-space: pre;&quot;&gt;&#9;&lt;/span&gt;&lt;/span&gt;- certificates&lt;br&gt;&lt;br&gt;&lt;span style=&quot;white-space: pre;&quot;&gt;&#9;&lt;/span&gt;Create:&lt;br&gt;&lt;span style=&quot;white-space: pre;&quot;&gt;&#9;&lt;span style=&quot;white-space: pre;&quot;&gt;&#9;&lt;/span&gt;&lt;/span&gt;- certificates&lt;br&gt;&lt;div style=&quot;&quot;&gt;&lt;div style=&quot;&quot;&gt;&lt;span style=&quot;white-space: pre;&quot;&gt;&#9;&lt;span style=&quot;white-space: pre;&quot;&gt;&#9;&lt;/span&gt;&lt;/span&gt;- domain&lt;/div&gt;&lt;/div&gt;" style="rounded=1;whiteSpace=wrap;html=1;verticalAlign=top;fillColor=#003366;strokeColor=#FFFF66;fontColor=#F0F0F0;arcSize=10;dashed=0;labelBackgroundColor=none;align=left;" vertex="1" parent="1">
                    <mxGeometry x="-220" y="590" width="140" height="132" as="geometry"/>
                </mxCell>
                <mxCell id="192" value="" style="edgeStyle=none;html=1;strokeColor=#FFFF99;fontSize=9;fontColor=#994C00;fillColor=#CC6600;entryX=0;entryY=0.75;entryDx=0;entryDy=0;" edge="1" parent="1" source="165" target="167">
                    <mxGeometry relative="1" as="geometry">
                        <mxPoint x="-190" y="400" as="targetPoint"/>
                    </mxGeometry>
                </mxCell>
                <mxCell id="165" value="Admin" style="rounded=1;whiteSpace=wrap;html=1;verticalAlign=top;fillColor=#003366;strokeColor=#006600;fontColor=#F0F0F0;arcSize=40;dashed=0;labelBackgroundColor=none;" vertex="1" parent="1">
                    <mxGeometry x="-320" y="385" width="80" height="30" as="geometry"/>
                </mxCell>
                <mxCell id="167" value="&lt;div style=&quot;&quot;&gt;&lt;div style=&quot;text-align: left;&quot;&gt;&lt;span style=&quot;background-color: initial;&quot;&gt;Acces to:&lt;/span&gt;&lt;/div&gt;&lt;span style=&quot;background-color: initial;&quot;&gt;&lt;div style=&quot;text-align: left;&quot;&gt;&lt;span style=&quot;font-size: 9px; background-color: initial;&quot;&gt;&lt;span style=&quot;white-space: pre;&quot;&gt;&#9;&lt;/span&gt;- names&lt;/span&gt;&lt;/div&gt;&lt;/span&gt;&lt;span style=&quot;background-color: initial; font-size: 9px;&quot;&gt;&lt;div style=&quot;text-align: left;&quot;&gt;&lt;span style=&quot;background-color: initial;&quot;&gt;&lt;span style=&quot;white-space: pre;&quot;&gt;&#9;&lt;/span&gt;- addresses&lt;/span&gt;&lt;/div&gt;&lt;/span&gt;&lt;span style=&quot;background-color: initial; font-size: 9px;&quot;&gt;&lt;div style=&quot;text-align: left;&quot;&gt;&lt;span style=&quot;background-color: initial;&quot;&gt;&lt;span style=&quot;white-space: pre;&quot;&gt;&#9;&lt;/span&gt;- certificates&lt;/span&gt;&lt;/div&gt;&lt;/span&gt;&lt;span style=&quot;background-color: initial; font-size: 9px;&quot;&gt;&lt;div style=&quot;text-align: left;&quot;&gt;&lt;span style=&quot;background-color: initial;&quot;&gt;&lt;span style=&quot;white-space: pre;&quot;&gt;&#9;&lt;/span&gt;- authoritys&lt;/span&gt;&lt;/div&gt;&lt;/span&gt;&lt;font style=&quot;background-color: initial;&quot;&gt;&lt;div style=&quot;text-align: left;&quot;&gt;&lt;font style=&quot;background-color: initial;&quot;&gt;&lt;br&gt;&lt;/font&gt;&lt;/div&gt;&lt;div style=&quot;text-align: left;&quot;&gt;&lt;font style=&quot;background-color: initial;&quot;&gt;Create&lt;/font&gt;&lt;font style=&quot;background-color: initial; font-size: 9px;&quot;&gt;:&lt;/font&gt;&lt;/div&gt;&lt;/font&gt;&lt;/div&gt;&lt;div style=&quot;&quot;&gt;&lt;div style=&quot;text-align: left;&quot;&gt;&lt;span style=&quot;background-color: initial; font-size: 9px;&quot;&gt;&lt;span style=&quot;white-space: pre;&quot;&gt;&#9;&lt;/span&gt;- authority&lt;/span&gt;&lt;/div&gt;&lt;span style=&quot;background-color: initial; font-size: 9px;&quot;&gt;&lt;div style=&quot;text-align: left;&quot;&gt;&lt;span style=&quot;background-color: initial;&quot;&gt;&lt;span style=&quot;white-space: pre;&quot;&gt;&#9;&lt;/span&gt;- domain&lt;/span&gt;&lt;/div&gt;&lt;/span&gt;&lt;span style=&quot;font-size: 9px; background-color: initial;&quot;&gt;&lt;div style=&quot;text-align: left;&quot;&gt;&lt;span style=&quot;background-color: initial;&quot;&gt;&lt;span style=&quot;white-space: pre;&quot;&gt;&#9;&lt;/span&gt;- address&lt;/span&gt;&lt;/div&gt;&lt;/span&gt;&lt;/div&gt;" style="rounded=1;whiteSpace=wrap;html=1;verticalAlign=top;fillColor=#003366;strokeColor=#006600;fontColor=#F0F0F0;arcSize=13;dashed=0;labelBackgroundColor=none;" vertex="1" parent="1">
                    <mxGeometry x="-198" y="294" width="118" height="141" as="geometry"/>
                </mxCell>
                <mxCell id="170" style="edgeStyle=none;html=1;exitX=0.5;exitY=1;exitDx=0;exitDy=0;entryX=0.5;entryY=0;entryDx=0;entryDy=0;strokeColor=#004C99;fontColor=#F0F0F0;fillColor=#003366;" edge="1" parent="1" source="169" target="130">
                    <mxGeometry relative="1" as="geometry"/>
                </mxCell>
                <mxCell id="172" value="" style="edgeStyle=none;html=1;strokeColor=#004C99;fontColor=#F0F0F0;fillColor=#003366;" edge="1" parent="1" source="169" target="171">
                    <mxGeometry relative="1" as="geometry"/>
                </mxCell>
                <mxCell id="183" value="" style="edgeStyle=none;html=1;strokeColor=#CCFFFF;fontColor=#994C00;fillColor=#CC6600;" edge="1" parent="1" source="169" target="182">
                    <mxGeometry relative="1" as="geometry"/>
                </mxCell>
                <mxCell id="169" value="&lt;br&gt;&lt;br&gt;IF" style="rhombus;whiteSpace=wrap;html=1;verticalAlign=top;fillColor=#004C99;strokeColor=#FF8000;fontColor=#F0F0F0;rounded=1;arcSize=10;dashed=0;labelBackgroundColor=none;align=center;" vertex="1" parent="1">
                    <mxGeometry x="-680" y="360" width="80" height="80" as="geometry"/>
                </mxCell>
                <mxCell id="174" value="" style="edgeStyle=none;html=1;strokeColor=#009900;fontColor=#F0F0F0;fillColor=#003366;" edge="1" parent="1" source="171" target="173">
                    <mxGeometry relative="1" as="geometry"/>
                </mxCell>
                <mxCell id="171" value="signin" style="rounded=1;whiteSpace=wrap;html=1;verticalAlign=top;fillColor=#003366;strokeColor=#4D4D4D;fontColor=#F0F0F0;arcSize=50;dashed=0;labelBackgroundColor=none;" vertex="1" parent="1">
                    <mxGeometry x="-560" y="383" width="80" height="32" as="geometry"/>
                </mxCell>
                <mxCell id="180" style="edgeStyle=none;html=1;exitX=1;exitY=0.5;exitDx=0;exitDy=0;entryX=0;entryY=0.5;entryDx=0;entryDy=0;strokeColor=#006600;fontColor=#F0F0F0;fillColor=#003366;" edge="1" parent="1" source="173" target="165">
                    <mxGeometry relative="1" as="geometry"/>
                </mxCell>
                <mxCell id="181" style="edgeStyle=none;html=1;exitX=0.5;exitY=1;exitDx=0;exitDy=0;entryX=0.5;entryY=0;entryDx=0;entryDy=0;strokeColor=#994C00;fontColor=#F0F0F0;fillColor=#003366;" edge="1" parent="1" source="173" target="155">
                    <mxGeometry relative="1" as="geometry"/>
                </mxCell>
                <mxCell id="173" value="&lt;br&gt;&lt;br&gt;IF" style="rhombus;whiteSpace=wrap;html=1;verticalAlign=top;fillColor=#003366;strokeColor=#009900;fontColor=#F0F0F0;rounded=1;arcSize=0;dashed=0;labelBackgroundColor=none;" vertex="1" parent="1">
                    <mxGeometry x="-440" y="359" width="80" height="80" as="geometry"/>
                </mxCell>
                <mxCell id="176" style="edgeStyle=none;html=1;exitX=1;exitY=0.5;exitDx=0;exitDy=0;entryX=0;entryY=0.5;entryDx=0;entryDy=0;strokeColor=#FF8000;fontColor=#F0F0F0;fillColor=#000066;" edge="1" parent="1" source="175" target="169">
                    <mxGeometry relative="1" as="geometry"/>
                </mxCell>
                <mxCell id="175" value="Action1" style="html=1;align=center;verticalAlign=top;rounded=1;absoluteArcSize=1;arcSize=10;dashed=0;labelBackgroundColor=none;strokeColor=#4D4D4D;fontColor=#F0F0F0;fillColor=#CC6600;" vertex="1" parent="1">
                    <mxGeometry x="-770" y="384" width="50" height="30" as="geometry"/>
                </mxCell>
                <mxCell id="188" value="" style="edgeStyle=none;html=1;strokeColor=#CCFFFF;fontColor=#994C00;fillColor=#CC6600;" edge="1" parent="1" source="182" target="187">
                    <mxGeometry relative="1" as="geometry"/>
                </mxCell>
                <mxCell id="182" value="view" style="whiteSpace=wrap;html=1;verticalAlign=top;fillColor=#004C99;strokeColor=#CCFFFF;fontColor=#F0F0F0;rounded=1;arcSize=10;dashed=0;labelBackgroundColor=none;" vertex="1" parent="1">
                    <mxGeometry x="-670" y="290" width="60" height="30" as="geometry"/>
                </mxCell>
                <mxCell id="184" value="" style="edgeStyle=none;html=1;strokeColor=#FF3333;fontColor=#994C00;fillColor=#CC6600;" edge="1" target="185" parent="1">
                    <mxGeometry relative="1" as="geometry">
                        <mxPoint x="-400" y="360" as="sourcePoint"/>
                        <Array as="points">
                            <mxPoint x="-400" y="305"/>
                        </Array>
                    </mxGeometry>
                </mxCell>
                <mxCell id="185" value="recovery" style="whiteSpace=wrap;html=1;verticalAlign=top;fillColor=#004C99;strokeColor=#FF3333;fontColor=#F0F0F0;rounded=1;arcSize=10;dashed=0;labelBackgroundColor=none;" vertex="1" parent="1">
                    <mxGeometry x="-300" y="290" width="60" height="30" as="geometry"/>
                </mxCell>
                <mxCell id="187" value="&lt;div style=&quot;text-align: left;&quot;&gt;&lt;span style=&quot;background-color: initial;&quot;&gt;Acces to&amp;nbsp;&lt;/span&gt;&lt;span style=&quot;background-color: initial;&quot;&gt;addresses&lt;/span&gt;&lt;/div&gt;" style="rounded=1;whiteSpace=wrap;html=1;verticalAlign=top;fillColor=#003366;strokeColor=#CCFFFF;fontColor=#F0F0F0;arcSize=10;dashed=0;labelBackgroundColor=none;" vertex="1" parent="1">
                    <mxGeometry x="-572" y="294" width="132" height="26" as="geometry"/>
                </mxCell>
                <mxCell id="193" value="Recovery" style="swimlane;fontStyle=1;align=center;verticalAlign=top;childLayout=stackLayout;horizontal=1;startSize=26;horizontalStack=0;resizeParent=1;resizeParentMax=0;resizeLast=0;collapsible=1;marginBottom=0;labelBackgroundColor=none;strokeColor=#4D4D4D;fontColor=#F0F0F0;fillColor=#FF3333;" vertex="1" parent="1">
                    <mxGeometry x="600" y="194" width="160" height="86" as="geometry"/>
                </mxCell>
                <mxCell id="201" value="+ private key: str" style="text;strokeColor=none;fillColor=none;align=left;verticalAlign=top;spacingLeft=4;spacingRight=4;overflow=hidden;rotatable=0;points=[[0,0.5],[1,0.5]];portConstraint=eastwest;labelBackgroundColor=none;fontColor=#F0F0F0;" vertex="1" parent="193">
                    <mxGeometry y="26" width="160" height="26" as="geometry"/>
                </mxCell>
                <mxCell id="196" value="" style="line;strokeWidth=1;fillColor=none;align=left;verticalAlign=middle;spacingTop=-1;spacingLeft=3;spacingRight=3;rotatable=0;labelPosition=right;points=[];portConstraint=eastwest;strokeColor=inherit;labelBackgroundColor=none;fontColor=#F0F0F0;" vertex="1" parent="193">
                    <mxGeometry y="52" width="160" height="8" as="geometry"/>
                </mxCell>
                <mxCell id="197" value="+ recovery_adress(): type" style="text;strokeColor=none;fillColor=none;align=left;verticalAlign=top;spacingLeft=4;spacingRight=4;overflow=hidden;rotatable=0;points=[[0,0.5],[1,0.5]];portConstraint=eastwest;labelBackgroundColor=none;fontColor=#F0F0F0;" vertex="1" parent="193">
                    <mxGeometry y="60" width="160" height="26" as="geometry"/>
                </mxCell>
                <mxCell id="210" style="edgeStyle=none;html=1;exitX=0;exitY=0.5;exitDx=0;exitDy=0;entryX=1;entryY=0.5;entryDx=0;entryDy=0;strokeColor=#999999;fontSize=9;fontColor=#994C00;fillColor=#CC6600;" edge="1" parent="1" source="127" target="93">
                    <mxGeometry relative="1" as="geometry">
                        <Array as="points">
                            <mxPoint x="550" y="853"/>
                            <mxPoint x="550" y="960"/>
                            <mxPoint x="280" y="960"/>
                            <mxPoint x="280" y="618"/>
                        </Array>
                    </mxGeometry>
                </mxCell>
                <mxCell id="216" style="edgeStyle=none;html=1;exitX=1;exitY=0.5;exitDx=0;exitDy=0;entryX=0.25;entryY=0;entryDx=0;entryDy=0;strokeColor=#CC0000;fontSize=9;fontColor=#994C00;fillColor=#CC6600;" edge="1" parent="1" source="215" target="193">
                    <mxGeometry relative="1" as="geometry">
                        <Array as="points">
                            <mxPoint x="290" y="261"/>
                            <mxPoint x="290" y="80"/>
                            <mxPoint x="640" y="80"/>
                        </Array>
                    </mxGeometry>
                </mxCell>
                <mxCell id="218" style="edgeStyle=none;html=1;exitX=0;exitY=0.5;exitDx=0;exitDy=0;entryX=0;entryY=0.5;entryDx=0;entryDy=0;strokeColor=#666666;fontSize=9;fontColor=#994C00;fillColor=#CC6600;" edge="1" parent="1" source="197" target="217">
                    <mxGeometry relative="1" as="geometry">
                        <Array as="points">
                            <mxPoint x="570" y="267"/>
                            <mxPoint x="570" y="400"/>
                            <mxPoint x="70" y="400"/>
                            <mxPoint x="70" y="644"/>
                        </Array>
                    </mxGeometry>
                </mxCell>
                <mxCell id="222" value="" style="edgeStyle=none;html=1;strokeColor=#CC6600;fontSize=9;fontColor=#994C00;fillColor=#CC6600;" edge="1" parent="1" source="220" target="155">
                    <mxGeometry relative="1" as="geometry"/>
                </mxCell>
                <mxCell id="220" value="Create address" style="html=1;align=center;verticalAlign=top;rounded=1;absoluteArcSize=1;arcSize=30;dashed=0;labelBackgroundColor=none;strokeColor=#4D4D4D;fontColor=#F0F0F0;fillColor=#003366;" vertex="1" parent="1">
                    <mxGeometry x="-580" y="512" width="100" height="28" as="geometry"/>
                </mxCell>
                <mxCell id="224" style="edgeStyle=none;html=1;exitX=0;exitY=0.5;exitDx=0;exitDy=0;entryX=1.008;entryY=0.085;entryDx=0;entryDy=0;entryPerimeter=0;strokeColor=#666600;fontSize=9;fontColor=#994C00;fillColor=#CC6600;" edge="1" parent="1" source="223" target="88">
                    <mxGeometry relative="1" as="geometry">
                        <Array as="points">
                            <mxPoint x="290" y="878"/>
                            <mxPoint x="290" y="486"/>
                        </Array>
                    </mxGeometry>
                </mxCell>
                <mxCell id="225" value="Signup" style="swimlane;fontStyle=1;align=center;verticalAlign=top;childLayout=stackLayout;horizontal=1;startSize=26;horizontalStack=0;resizeParent=1;resizeParentMax=0;resizeLast=0;collapsible=1;marginBottom=0;labelBackgroundColor=none;strokeColor=#4D4D4D;fontColor=#F0F0F0;fillColor=#4D9900;" vertex="1" parent="1">
                    <mxGeometry x="600" y="374" width="160" height="138" as="geometry"/>
                </mxCell>
                <mxCell id="226" value="+ statut: list( user, authority )" style="text;strokeColor=none;fillColor=none;align=left;verticalAlign=top;spacingLeft=4;spacingRight=4;overflow=hidden;rotatable=0;points=[[0,0.5],[1,0.5]];portConstraint=eastwest;labelBackgroundColor=none;fontColor=#F0F0F0;" vertex="1" parent="225">
                    <mxGeometry y="26" width="160" height="26" as="geometry"/>
                </mxCell>
                <mxCell id="227" value="" style="line;strokeWidth=1;fillColor=none;align=left;verticalAlign=middle;spacingTop=-1;spacingLeft=3;spacingRight=3;rotatable=0;labelPosition=right;points=[];portConstraint=eastwest;strokeColor=inherit;labelBackgroundColor=none;fontColor=#F0F0F0;" vertex="1" parent="225">
                    <mxGeometry y="52" width="160" height="8" as="geometry"/>
                </mxCell>
                <mxCell id="228" value="+ create_user(): type" style="text;strokeColor=none;fillColor=#330066;align=left;verticalAlign=top;spacingLeft=4;spacingRight=4;overflow=hidden;rotatable=0;points=[[0,0.5],[1,0.5]];portConstraint=eastwest;labelBackgroundColor=none;fontColor=#F0F0F0;" vertex="1" parent="225">
                    <mxGeometry y="60" width="160" height="26" as="geometry"/>
                </mxCell>
                <mxCell id="229" value="+ create_authority(): type" style="text;strokeColor=none;fillColor=#006666;align=left;verticalAlign=top;spacingLeft=4;spacingRight=4;overflow=hidden;rotatable=0;points=[[0,0.5],[1,0.5]];portConstraint=eastwest;labelBackgroundColor=none;fontColor=#F0F0F0;" vertex="1" parent="225">
                    <mxGeometry y="86" width="160" height="26" as="geometry"/>
                </mxCell>
                <mxCell id="203" value="+ recovery_address(): type" style="text;strokeColor=none;fillColor=#FF0000;align=left;verticalAlign=top;spacingLeft=4;spacingRight=4;overflow=hidden;rotatable=0;points=[[0,0.5],[1,0.5]];portConstraint=eastwest;labelBackgroundColor=none;fontColor=#F0F0F0;" vertex="1" parent="225">
                    <mxGeometry y="112" width="160" height="26" as="geometry"/>
                </mxCell>
                <mxCell id="230" style="edgeStyle=none;html=1;exitX=0;exitY=0.5;exitDx=0;exitDy=0;entryX=1;entryY=0.041;entryDx=0;entryDy=0;entryPerimeter=0;strokeColor=#6600CC;fontSize=9;fontColor=#994C00;fillColor=#CC6600;" edge="1" parent="1" source="228" target="113">
                    <mxGeometry relative="1" as="geometry">
                        <Array as="points">
                            <mxPoint x="540" y="447"/>
                            <mxPoint x="540" y="120"/>
                        </Array>
                    </mxGeometry>
                </mxCell>
                <mxCell id="231" style="edgeStyle=none;html=1;exitX=0;exitY=0.538;exitDx=0;exitDy=0;entryX=0.997;entryY=0.014;entryDx=0;entryDy=0;entryPerimeter=0;strokeColor=#006666;fontSize=9;fontColor=#994C00;fillColor=#CC6600;exitPerimeter=0;" edge="1" parent="1" source="229" target="48">
                    <mxGeometry relative="1" as="geometry">
                        <Array as="points">
                            <mxPoint x="570" y="474"/>
                        </Array>
                    </mxGeometry>
                </mxCell>
                <mxCell id="232" style="edgeStyle=none;html=1;exitX=1;exitY=0.5;exitDx=0;exitDy=0;entryX=0.999;entryY=0.148;entryDx=0;entryDy=0;entryPerimeter=0;strokeColor=#990000;fontSize=9;fontColor=#994C00;fillColor=#CC6600;" edge="1" parent="1" source="203" target="193">
                    <mxGeometry relative="1" as="geometry">
                        <Array as="points">
                            <mxPoint x="800" y="500"/>
                            <mxPoint x="800" y="207"/>
                        </Array>
                    </mxGeometry>
                </mxCell>
            </root>
        </mxGraphModel>
    </diagram>
</mxfile>